<svg xmlns="http://www.w3.org/2000/svg" xml:space="preserve" viewBox="0 0 427.368 449.754">
    <defs>
    <style type="text/css"><![CDATA[
    * {
    fill: white;
    }
    ]]></style>
    </defs>
  <path d="M662.178 608.718c-.958-1.79-.337-95.522.794-119.708.78-16.677.842-24.463.46-57.142-.532-45.663-.437-70.658.352-91.844.62-16.651.93-18.609 3.337-21.015 1.367-1.368 3.767-1.159 4.8.417.998 1.524.872 7.177-.524 23.468-1.521 17.756-1.957 36.158-2.414 102.02-.253 36.308-.706 71.415-1.007 78.016-.58 12.69-.992 50.891-.55 50.865.144-.01 1.035-1.36 1.98-3.001 4.087-7.099 18.264-25.87 29.056-38.47 14.59-17.037 40.974-41.871 58.46-55.03 22.354-16.818 44.04-28.677 69.406-37.95 16.596-6.067 40.33-11.01 63.926-13.311 10.769-1.05 44.429-.892 55.055.26 12.058 1.307 29.121 4.132 34.249 5.043 9.481 1.685 18.83 4.082 28.044 7.082 9.82 3.262 23.367 9.667 31.725 15 9.132 5.827 15.83 11.312 15.83 12.963 0 1.127-2.383.127-9.654-4.053-19.295-11.093-30.554-16.07-47.088-20.816-14.549-4.176-38.407-8.786-53.106-10.262-8.681-.872-40.362-.87-49.575.005-56.331 5.339-91.58 18.659-134.364 50.772-23.533 17.664-39.997 34.661-59.839 61.778-9.163 12.523-18.52 25.656-22.494 31.571-6.782 10.097-12.2 21.814-13.752 29.745-.92 4.705-1.905 5.844-3.107 3.597zm41.75-2.46c-2.23-1.414-12.519-9.004-15.002-11.067-1.01-.839-1.107-1.174-.61-2.101.823-1.54 3.882-2.723 5.91-2.287 2.554.55 3.95 1.43 8.154 5.136 2.821 2.486 4.309 3.441 5.361 3.441 1.524 0 15.004-6.48 24.394-11.726 23.024-12.863 62.505-36.659 65.622-39.55 2.325-2.157 1.691-3.838-3.81-10.103-6.856-7.808-16.777-20.972-22.533-29.9-.49-.76-.716 2.205-1.427 18.772-1.087 25.3-1.302 28.018-2.31 29.21-.461.547-4.01 2.846-7.884 5.11-3.875 2.263-8.454 4.98-10.176 6.038-2.667 1.64-3.51 1.902-5.686 1.773-1.749-.104-2.737-.44-3.129-1.065-.91-1.451.12-2.499 5.156-5.241 5.596-3.048 13.712-8.55 14.313-9.701.758-1.453 2.01-24.012 2.588-46.612.345-13.524.476-15.083 1.348-16.046.532-.587 1.278-1.068 1.66-1.068.382 0 2.75 2.76 5.263 6.132 11.166 14.985 26.886 31.628 35.285 37.358 1.84 1.255 2.556 1.445 4.7 1.246 3.345-.311 12.605-4.93 20.607-10.28 6.314-4.22 15.729-12.601 17.071-15.197 1.272-2.46.88-4.768-2.312-13.62-3.404-9.436-8.054-24.515-10.491-34.016-2.069-8.067-2.22-7.868 5.725-7.475 8.078.4 19.315 1.902 39.784 5.32l17.077 2.851 6.145-1.251c3.38-.689 9.434-1.634 13.452-2.1 4.018-.468 8.257-.964 9.42-1.102 1.996-.239 2.202-.432 3.715-3.498 2.823-5.721 9.52-11.919 11.896-11.007 1.247.478.835 2.152-2.054 8.333-1.304 2.792-2.31 5.126-2.237 5.189.073.062 3.416.48 7.427.93l7.293.816 3.586-3.891c4.011-4.353 7.559-6.753 9.208-6.23 2.06.654 1.46 2.054-3.534 8.24-1.57 1.946-2.7 3.692-2.512 3.88.188.189 2.688 1.209 5.556 2.267l5.213 1.923 3.278-3.214c3.894-3.818 6.63-5.316 8.187-4.483.577.309 1.05.787 1.05 1.062s-1.644 2.365-3.654 4.645c-2.009 2.28-3.653 4.364-3.653 4.631 0 .267.998 1.139 2.218 1.938 1.22.799 3.305 2.354 4.633 3.456l2.416 2.005 7.137-3.432c3.926-1.888 7.476-3.302 7.891-3.143 1.043.4.946 2.598-.16 3.585-1.07.956-10.24 5.608-11.054 5.608-.798 0-.709.311.717 2.49.7 1.07 1.419 2.549 1.598 3.286l.325 1.34 3.229-.681c1.776-.375 4.777-.832 6.67-1.016 2.898-.282 3.492-.201 3.767.515.819 2.135-.64 2.877-9.347 4.753l-4.226.91-1.068 2.528c-1.03 2.439-1.63 2.976-6.69 5.996-.794.473-.34.903 3.207 3.035 8.023 4.822 18.387 9.6 26.189 12.074 10.84 3.437 11.318 3.638 11.5 4.826.248 1.635-1.27 2.735-3.774 2.735-1.23 0-9.022-.693-17.315-1.54-49.958-5.107-81.83-4.887-115.473.797-26.335 4.45-46.182 10.842-59.534 19.176-3.87 2.416-10.04 6.969-15.41 11.373-2.322 1.903-8.784 5.791-17.718 10.658-7.736 4.214-16.659 9.13-19.83 10.925-3.17 1.795-13.867 7.554-23.769 12.797-23.489 12.437-30.257 16.095-35.268 19.06-5.699 3.374-8.882 4.946-10.013 4.946-.527 0-2.003-.662-3.279-1.472zm292-94.948c-1.148-.45-5.728-2.683-10.176-4.959l-8.089-4.138-6.122.865c-17.268 2.44-41.973 2.433-63.283-.02-3.731-.428-8.254-1.12-10.05-1.536l-3.266-.757-6.91 3.312c-3.8 1.821-7.355 3.467-7.898 3.658-1.836.645-.597.756 3.336.3 7.7-.896 29.47-1.162 44.879-.55 24.564.976 53.7 2.896 63.926 4.212 5.162.665 6.08.567 3.653-.387zm-122.154-6.647c4.153-1.203 11.274-4.417 13.496-6.091.845-.636.565-.938-3.063-3.305-7.122-4.644-10.854-10.335-9.844-15.006 1.073-4.964 5.137-9.624 11.265-12.917l3.322-1.785-3.653-.647c-3.373-.597-27.548-3.3-36.92-4.129-4.777-.422-4.663-.658-2.697 5.567 3.143 9.949 11.278 27.828 15.716 34.539 3.62 5.476 5.027 5.905 12.378 3.774zm78.058-5.477c13.905-1.027 25.667-3.228 31.082-5.816 4.22-2.018 5.96-6.005 4.405-10.095-.754-1.982-5.515-6.847-9.07-9.266-4.254-2.896-11.725-6.341-17.148-7.909-20.569-5.946-51.707-4.76-66.94 2.549-8.596 4.125-13.23 10.375-11.753 15.855.654 2.43 4.456 6.178 8.168 8.055 11.052 5.585 37.138 8.407 61.256 6.627zm-21.918-2.948c-9.892-.934-13.998-1.51-18.05-2.534-8.179-2.067-11.986-4.67-13.314-9.102-1.689-5.637 2.445-10.713 11.943-14.667 7.3-3.039 19.19-5.411 20.987-4.187 1.6 1.088-.24 2.224-6.532 4.03-7.943 2.282-11.059 3.717-14.042 6.467-2.071 1.91-2.387 2.477-2.387 4.29 0 5.403 8.798 8.374 26.941 9.096 9.83.392 19.253-.473 27.399-2.513 6.106-1.53 8.087-1.514 9.068.072 1.01 1.634-5.694 5.419-12.824 7.241-2.134.546-5.993 1.251-8.576 1.568-4.28.524-16.131.662-20.613.239zm121.66 96.488c-.597-1.114-2.406-11.863-3.317-19.699-.891-7.672-.879-45.846.02-56.098 1.054-12.046 2.63-23.8 4.027-30.03 2.065-9.21 2.484-10.391 3.752-10.575 2.006-.29 2.224 1.186 1.415 9.59-3.23 33.548-3.392 36.32-3.72 63.84-.209 17.38-.103 27.354.354 33.534.517 6.989.518 8.956.01 9.574-.864 1.041-1.937.983-2.536-.136zM672.33 490.105c-.154-.403-.205-5.989-.114-12.413 0 0-.017-7.709.99-11.382.588-2.147 2.894-6.02 2.894-6.02 2.044-3.147 8.596-13.47 14.559-22.942 14.906-23.677 45.344-69.437 46.474-69.871.553-.212 1.249-.034 1.724.441 1.007 1.007.619 2.173-3.829 11.505-3.29 6.903-6.3 12.39-22.05 40.182-9.776 17.252-20.04 35.953-31.436 57.273-7.01 13.114-8.457 15.193-9.212 13.227zm69.214-8.032c-.472-.568-.566-.231 1.305-8.276 5.22-22.44 9.038-35.982 15.575-55.236 6.596-19.424 8.04-22.499 9.76-20.779.442.443.187 2.358-1.006 7.555-3.534 15.384-8.067 42.507-9.924 59.374 0 0-.246 3.854-1.083 5.54-1.069 2.15-4.8 5.373-4.8 5.373-4.948 4.689-8.027 7.174-8.892 7.18-.18 0-.6-.328-.935-.73zm332.173-20.763c-9.563-1.487-30.387-7.25-31.264-8.655-.912-1.46.47-2.522 3.283-2.522 2.487 0 10.103 1.959 17.248 4.436 4.176 1.448 11.682 3.382 13.151 3.388.578.003-.335-1.237-2.615-3.549-6.326-6.414-13.667-16.89-13.667-19.503 0-1.564 1.434-1.695 3.267-.297 2.52 1.922 7.502 4.309 11.475 5.498 1.937.58 3.522.946 3.522.814 0-.133-2.08-2.282-4.623-4.777-4.948-4.855-8.931-10.453-10.016-14.076-.956-3.193-.436-3.49 4.372-2.497 3.948.815 9.224 1.102 9.224.502 0-.174-.697-1.196-1.549-2.272-3.492-4.41-5.735-10.998-5.75-16.895l-.01-3.044-3.174 2.873c-1.746 1.58-4.446 3.537-6 4.349-1.554.812-2.826 1.642-2.827 1.846 0 .203 1.87 1.495 4.155 2.87 6.192 3.725 5.724 4.775-2.33 5.23-4.165.235-7.776-.083-13.828-1.217l-1.827-.342 2.61 2.715c1.434 1.494 4.84 4.518 7.566 6.721 2.727 2.203 5.12 4.232 5.32 4.51 2.173 3.032-11.483 2.163-22.485-1.432-2.901-.947-5.274-1.563-5.274-1.369 0 1.764 10.162 12.446 15.525 16.322 1.507 1.088 2.74 2.165 2.74 2.393 0 2.05-8.575 2.519-15.917.87-4.705-1.057-11.01-3.729-11.44-4.847-.49-1.275 1.015-1.336 6.31-.256 2.822.575 6.54 1.212 8.261 1.415l3.131.369-2.625-2.81c-6.503-6.96-11.725-15.298-11.725-18.72 0-2.142.66-2.306 3.502-.867 3.36 1.7 10.889 4.323 15.18 5.29 1.923.433 4.083.924 4.8 1.092.938.218-.181-1.099-3.972-4.674-7.83-7.388-13.572-15.358-10.248-14.227.503.171 3.731 1.29 7.176 2.487 4.492 1.56 7.368 2.239 10.176 2.4l3.913.226-1.826-1.438c-3.43-2.701-7.086-6.744-8.788-9.72-1.638-2.863-4.78-11.294-4.78-12.828 0-.938.333-.833 7.99 2.524 3.39 1.487 6.281 2.585 6.426 2.44.144-.144-.665-2.106-1.797-4.36-2.417-4.814-4.542-11.273-5.33-16.206-.632-3.957-.735-4.169-1.667-3.43-1.267 1.004-6.95 2.854-11.884 3.868-3.267.67-8.206 1.125-14.481 1.33-5.238.172-9.524.456-9.524.633 0 .618 4.778 3.2 7.812 4.222 1.684.567 4.974 1.363 7.311 1.769 2.338.406 4.387.874 4.554 1.04.6.601-1.022 1.852-3.41 2.63-3.594 1.17-12.007 1.87-22.715 1.891l-9.468.019 1.49 1.22c4.703 3.846 15.012 8.724 23.45 11.095 2.786.784 5.066 1.694 5.066 2.023 0 .62-2.455 1.811-5.883 2.856-1.083.33-4.489.756-7.567.947l-5.598.347 4.93 1.87c2.71 1.03 5.02 2.148 5.133 2.487.602 1.804-9.51 3.859-17.883 3.633-3.306-.09-6.01-.012-6.01.171 0 1.063 7.95 3.743 14.136 4.766 3.307.548 3.87.792 3.87 1.684 0 .841-1.144 1.503-5.916 3.424-6.76 2.722-8.224 3.523-7.584 4.15.491.481 9.026 2.074 11.151 2.082 2.25.008 5.218 1.054 5.218 1.84 0 1.173-2.26 1.462-8.808 1.123-6.312-.52-9.287-1.228-15.718-3.429l-3.914-1.53 5.797-2.786 5.797-2.786-3.97-1.92c-2.184-1.055-5.371-3.054-7.082-4.441-3.521-2.856-6.49-6.7-5.731-7.42.29-.274 2.421-.17 5.189.254 4.98.762 16.96 1.01 16.96.35 0-.215-1.938-1.056-4.306-1.869-6.013-2.064-12.63-5.235-14.2-6.805-1.437-1.436-1.747-3.33-.617-3.763.388-.149 2.795.454 5.348 1.34 2.554.885 6.61 1.954 9.016 2.375 4.634.81 11.543 1.031 11.543.37 0-.217-1.447-.955-3.216-1.641-6.402-2.482-18.54-11.708-21.568-16.391-.813-1.258-.843-1.569-.215-2.186.623-.61 1.204-.609 3.864.01 6.283 1.463 24.041 2.44 25.657 1.413.368-.234-1.305-1.383-4.23-2.905-4.956-2.577-11.807-7.397-12.176-8.564-.16-.508 2.241-.652 10.837-.652 22.142 0 35.24-2.298 41.593-7.294 2.308-1.816 2.58-1.454 3.227 4.3 1.416 12.587 5.207 22.689 10.684 28.47 1.593 1.681 1.611 1.754.628 2.479-1.455 1.072-6.683.937-11.511-.298-2.244-.574-4.175-1.043-4.29-1.043-.628 0 2.863 5.396 4.565 7.058 1.55 1.514 2.27 1.877 3.24 1.633 2.198-.552 7.792-5.225 14.136-11.81 4.172-4.331 6.342-6.234 6.7-5.877.358.358.232 1.943-.388 4.893-.545 2.588-.935 6.805-.96 10.365-.039 5.534.07 6.228 1.39 8.917 1.346 2.736 5.616 7.324 9.537 10.245l1.555 1.158-1.18 1.018c-1.673 1.442-5.577 2.145-11.926 2.145h-5.488l2.473 3.148c3.175 4.04 9.344 9.92 14.165 13.496 2.08 1.544 3.783 3.117 3.783 3.495 0 1.907-7.714 1.505-15.49-.807-2.809-.835-5.177-1.448-5.263-1.362-.67.67 10.702 12.942 14.36 15.495 1.242.867 2.218 1.97 2.218 2.506 0 1.758-3.364 1.991-11.184.776zm-264.738-20.7c-.284-.36-.667-4.058-.852-8.22a1322.29 1322.29 0 0 0-.908-17.091c-.6-9.971-.444-12.132.88-12.132 1.238 0 2.124 2.705 6.307 19.247 3.165 12.518 3.76 15.483 3.207 15.997-.601.56-6.84 2.85-7.761 2.85-.196 0-.59-.293-.873-.652zm55.182-32.92c-6.17-8.728-11.22-16.306-11.22-16.842 0-.535.353-1.034.783-1.108.77-.133 15.791 14.301 26.887 25.836 6.742 7.009 6.729 7.204-.534 7.676 0 0-2.621.19-3.669-.46-2.177-1.352-12.247-15.102-12.247-15.102zm91.323-1.287c-15.252-7.276-35.622-17.812-51.663-26.724-14.58-8.1-29.906-17.108-31.932-18.77-1.11-.91-1.14-1.055-.362-1.846.78-.795 1.163-.724 5.218.957 2.407.998 11.538 5.15 20.292 9.224 18.205 8.475 43.127 19.789 59.49 27.007 18.432 8.132 18.858 8.398 17.739 11.1-.36.868-1.345 2.16-2.191 2.871-2.76 2.322-4.609 1.897-16.591-3.82zm-159.946-6.188c-17.883-2.126-25.839-4.917-35.485-12.449-10.353-8.083-17.585-18.23-21.602-30.31-2.413-7.256-3.186-11.97-3.186-19.44 0-15.104 4.062-25.712 13.113-34.25 9.025-8.514 21.128-14.185 35.68-16.718 7.07-1.23 20.337-1.116 28.143.244 24.975 4.349 46.286 19.49 53.652 38.12 2.4 6.073 3.248 11.446 3.21 20.352-.03 7.041-.214 8.763-1.424 13.295-1.677 6.278-5.58 14.377-9.272 19.239-3.322 4.374-8.97 9.188-14.599 12.44-4.578 2.645-15.723 6.55-22.66 7.938-7.854 1.573-19.427 2.27-25.57 1.54zm21.657-6.274c12.693-2.03 25.2-7.978 31.938-15.187 7.243-7.749 10.774-17.64 10.188-28.533-.536-9.964-3.938-17.42-11.33-24.826-3.503-3.512-5.436-4.963-9.14-6.86-9.112-4.671-18.624-6.69-31.508-6.69 0 0-4.996.48-6.958-.786-.225-.145-.41-.69-.41-.69 0-5.817 14.949-7.61 28.369-3.4 2.335.731 6.289 2.38 8.786 3.664 8.555 4.398 14.209 9.572 19.856 18.171 4.452 6.78 5.345 6.662 2.305-.301-5.57-12.758-16.897-23.233-29.89-27.643-11.414-3.875-19.816-5.325-30.732-5.303-21.641.042-39.326 7.675-47.976 20.707-7.124 10.733-8.607 27.044-3.754 41.299 9.278 27.258 37.125 41.677 70.256 36.378zm244.574-8.386c-1.322-2.226-.564-19.56 1.248-28.508 2.21-10.913 6.757-21.793 11.786-28.201 4.065-5.18 6.186-3.28 4.616 4.133-1.509 7.13-14.909 50.974-15.97 52.252-.657.793-1.325.921-1.68.324zm-51.492-51.56c-31.339-2.069-62.569-3.212-105.934-3.877-16.216-.25-29.895-.613-30.397-.809-1.389-.54-1.091-1.69.521-2.017 2.246-.456 63.816-1.339 111.646-1.602 44.294-.243 53.336-.589 62.235-2.378 2.714-.545 5.027-.898 5.14-.785.114.113-.051.99-.368 1.947-.794 2.405-4.864 6.918-7.792 8.639-2.432 1.43-2.448 1.432-13.394 1.51-6.027.042-15.773-.24-21.657-.629z" style="stroke-width:.391383" transform="translate(-661.706 -229)"/>
  <path d="M685.903 678.435c-.982 0-2.155-.362-3.52-1.088a16.568 16.568 0 0 1-3.52-2.56c-.982-.981-1.472-1.792-1.472-2.432 0-1.11 1.045-6.762 3.136-16.96.256-1.194.66-3.221 1.216-6.08.597-2.901 1.002-4.992 1.216-6.272l-2.368.384c-1.323-1.237-1.984-2.794-1.984-4.672 0-1.322.362-2.688 1.088-4.096a41.659 41.659 0 0 1 10.495-1.344c3.755 0 7.232.49 10.432 1.472 3.243.982 5.867 2.496 7.872 4.544 2.006 2.006 3.008 4.523 3.008 7.552 0 2.688-.896 5.248-2.688 7.68-1.749 2.39-4.309 4.374-7.68 5.952-3.37 1.579-7.338 2.539-11.904 2.88a132.846 132.846 0 0 0-.704 5.568c-.383 3.243-.746 5.632-1.087 7.168-.342 1.536-.854 2.304-1.536 2.304zm4.288-22.976c3.712-.725 6.57-1.834 8.576-3.328 2.048-1.536 3.072-3.242 3.072-5.12 0-1.28-.64-2.346-1.92-3.2-1.238-.896-2.923-1.344-5.056-1.344-.768 0-1.6.064-2.496.192l-1.024 6.016c-.598 3.37-.982 5.632-1.152 6.784zm68.454-22.464c3.114 0 6.058.747 8.832 2.24 2.816 1.494 5.056 3.478 6.72 5.952 1.706 2.432 2.56 4.97 2.56 7.616 0 4.139-1.11 8.576-3.328 13.312-2.22 4.694-5.035 8.64-8.448 11.84-3.371 3.2-6.7 4.8-9.984 4.8-1.707 0-3.627-.704-5.76-2.112a23.617 23.617 0 0 1-5.376-5.12c-1.494-2.005-2.24-3.776-2.24-5.312 0-2.432.725-6.613 2.176-12.544 1.45-5.973 2.794-10.368 4.032-13.184 1.408-.426 2.73-.64 3.968-.64.853 0 1.536.085 2.048.256a7.126 7.126 0 0 1 1.152-4.352c.853-1.322 2.069-2.24 3.648-2.752zm-6.592 36.992c4.096-1.493 7.53-4.352 10.304-8.576 2.773-4.266 4.736-8.938 5.888-14.016-1.195-.853-2.752-1.557-4.672-2.112-1.878-.554-3.904-.853-6.08-.896.085.427.17 1.067.256 1.92-3.926 7.339-5.824 15.232-5.696 23.68zm85.67-36.352c.81 0 1.898.363 3.263 1.088 1.408.726 2.624 1.579 3.648 2.56 1.067.982 1.6 1.835 1.6 2.56 0 .384-.405 2.09-1.216 5.12-1.493 5.376-2.602 10.07-3.328 14.08-.426 2.518-.874 5.824-1.344 9.92-.426 3.499-.81 5.952-1.152 7.36-.298 1.408-.789 2.112-1.472 2.112-.98 0-2.154-.341-3.52-1.024a16.568 16.568 0 0 1-3.52-2.56c-.98-.981-1.472-1.792-1.472-2.432-.042-.597.086-1.728.384-3.392a722.82 722.82 0 0 1 1.152-5.632l.576-2.752a139.267 139.267 0 0 1-11.584 1.28c-.426 2.859-.725 5.248-.896 7.168-.426 3.456-.81 5.888-1.152 7.296-.298 1.366-.789 2.048-1.472 2.048-.98 0-2.154-.341-3.52-1.024a16.568 16.568 0 0 1-3.52-2.56c-.98-.981-1.472-1.792-1.472-2.432-.042-.682.15-2.112.576-4.288.47-2.218.768-3.648.896-4.288.171-.853.491-2.41.96-4.672.47-2.304.854-4.437 1.152-6.4l.512-3.008c.811-4.778 1.558-8.661 2.24-11.648.726-2.986 1.451-4.48 2.176-4.48.811 0 1.9.363 3.264 1.088 1.408.726 2.624 1.579 3.648 2.56 1.067.982 1.6 1.835 1.6 2.56 0 .384-.405 2.09-1.216 5.12-.17.683-.469 1.835-.896 3.456-.426 1.622-.81 3.136-1.152 4.544 3.968-.298 7.808-.704 11.52-1.216a15.04 15.04 0 0 1 .256-1.408c.768-4.736 1.515-8.704 2.24-11.904.726-3.2 1.472-4.8 2.24-4.8zm55.781-.64c3.115 0 6.06.747 8.832 2.24 2.816 1.494 5.056 3.478 6.72 5.952 1.707 2.432 2.56 4.97 2.56 7.616 0 4.139-1.109 8.576-3.328 13.312-2.218 4.694-5.034 8.64-8.448 11.84-3.37 3.2-6.698 4.8-9.984 4.8-1.706 0-3.626-.704-5.76-2.112a23.617 23.617 0 0 1-5.376-5.12c-1.493-2.005-2.24-3.776-2.24-5.312 0-2.432.726-6.613 2.176-12.544 1.451-5.973 2.795-10.368 4.032-13.184 1.408-.426 2.731-.64 3.968-.64.854 0 1.536.085 2.048.256a7.126 7.126 0 0 1 1.152-4.352c.854-1.322 2.07-2.24 3.648-2.752zm-6.592 36.992c4.096-1.493 7.531-4.352 10.304-8.576 2.774-4.266 4.736-8.938 5.888-14.016-1.194-.853-2.752-1.557-4.672-2.112-1.877-.554-3.904-.853-6.08-.896.086.427.171 1.067.256 1.92-3.925 7.339-5.824 15.232-5.696 23.68zm62.758-36.992c5.163.427 9.942 1.707 14.336 3.84 4.395 2.134 7.872 4.822 10.432 8.064 2.56 3.2 3.84 6.57 3.84 10.112 0 3.115-1.365 6.55-4.096 10.304-2.73 3.755-6.058 6.934-9.984 9.536-3.882 2.603-7.424 3.904-10.624 3.904-1.066 0-2.432-.533-4.096-1.6a22.267 22.267 0 0 1-4.288-3.648c-1.237-1.408-1.856-2.517-1.856-3.328 0-.725.427-2.752 1.28-6.08.854-3.456 1.558-6.57 2.112-9.344.214-1.066.683-2.944 1.408-5.632.086-.384.3-1.152.64-2.304.342-1.194.598-2.282.768-3.264l-2.624-.128c-.682-1.365-1.024-2.73-1.024-4.096 0-1.28.32-2.453.96-3.52.64-1.11 1.58-2.048 2.816-2.816zm3.904 37.376c4.267-2.218 7.808-4.928 10.624-8.128 2.86-3.2 4.288-6.208 4.288-9.024 0-1.664-1.002-3.264-3.008-4.8-1.962-1.536-4.224-2.56-6.784-3.072a928.546 928.546 0 0 1-2.304 11.2c-1.28 6.059-2.218 10.667-2.816 13.824zm85.414-7.872c.043.683.192 2.41.448 5.184.3 2.73.448 5.014.448 6.848 0 2.39-.277 3.67-.832 3.84-.17.043-.448.064-.832.064-.938 0-2.112-.213-3.52-.64a18.582 18.582 0 0 1-3.712-1.728c-1.066-.682-1.685-1.344-1.856-1.984-.17-.64-.256-3.328-.256-8.064-4.608.555-7.637.896-9.088 1.024a436.704 436.704 0 0 1-3.968 11.072c-1.152.256-2.218.384-3.2.384-1.706 0-3.157-.405-4.352-1.216-1.152-.853-1.92-2.133-2.304-3.84l1.28-2.88c4.694-10.453 8.747-19.221 12.16-26.304 3.456-7.082 5.696-10.624 6.72-10.624.811 0 1.984.299 3.52.896 1.58.598 2.987 1.323 4.224 2.176 1.28.854 2.006 1.622 2.176 2.304.3 1.195.704 3.69 1.216 7.488.512 3.798.918 7.467 1.216 11.008zm-10.304-18.88a287.118 287.118 0 0 0-5.568 14.272 86.79 86.79 0 0 0 5.824-.576c0-5.888-.085-10.453-.256-13.696z" aria-label="POHODA" style="font-size:64px;font-family:Mogra;-inkscape-font-specification:&quot;Mogra, Normal&quot;;letter-spacing:29.35px" transform="translate(-661.706 -229)"/>
  <path d="M682.245 238.377q1.792-.064 2.816.736 1.056.768 1.056 2.144 0 .544-.128 1.024-4.224 4.864-9.472 7.744 1.792 1.728 4.064 3.2 2.304 1.472 4.416 2.304.096.512.096 1.024 0 1.504-.896 2.592-.864 1.056-2.496 1.28-2.336-1.376-4-3.168-1.664-1.824-3.392-4.544-.288 4.096-.576 5.92-.288 1.792-.928 1.792-.736 0-1.76-.512-.992-.544-1.76-1.28-.736-.736-.736-1.216-.032-.512.288-2.144.352-1.664.448-2.144.128-.64.48-2.336.352-1.728.576-3.2l.256-1.504q.608-3.584 1.12-5.824.544-2.24 1.088-2.24.608 0 1.632.544 1.056.544 1.824 1.28.8.736.8 1.28 0 .352-.576 2.208-.576 1.856-1.088 3.2 1.92-1.632 3.392-3.488 1.504-1.856 3.456-4.672zm16.124-2.176q-.896-.992-1.76-2.24-.832-1.248-.992-1.472-.576-.896-.896-1.344.128-.8.672-1.248.544-.48 1.376-.48.48 0 .896.128.992 1.728 1.248 2.208.928 1.728 1.632 2.72 2.56-2.432 4.128-4.672 1.216-.32 2.24-.32 1.152 0 1.952.416.832.416 1.024 1.408-3.264 3.264-5.216 5.024-1.312.64-3.072.64-1.888 0-3.232-.768zm6.208 24.416q-2.272-1.312-4.032-3.264-1.76-1.952-2.848-4.448l-.128 1.344q-.32 3.104-.64 4.64-.288 1.536-.832 1.536-.736 0-1.76-.544-.992-.544-1.76-1.28-.736-.736-.736-1.216 0-.832 1.568-8.48.192-.896.608-3.04.448-2.176.608-3.136l-1.184.192q-.992-.928-.992-2.336 0-.992.544-2.048 2.592-.672 5.248-.672 2.816 0 5.216.736 2.432.736 3.936 2.272 1.504 1.504 1.504 3.776 0 2.656-2.08 4.576-2.08 1.888-6.112 2.528 1.6 1.504 3.2 2.432 1.632.896 4.096 1.728.128.512.128 1.12 0 1.472-.896 2.432t-2.656 1.152zm-6.272-11.968q2.528-.256 4.128-1.344 1.632-1.088 1.632-2.592 0-.96-.96-1.6-.928-.672-2.528-.672-.576 0-1.248.096-.512 2.944-.48 2.816-.288 1.568-.544 3.296zm32.508-10.624q.608.352.896.992.32.608.32 1.344 0 .64-.256 1.28t-.672 1.056q-4.128.064-6.88.32-.544 1.952-1.024 4.352 3.2-.256 5.408-.768.64.384.96 1.024.352.608.352 1.344 0 .672-.288 1.28-.256.576-.736.928-.608.064-1.184.096l-1.12.064-4.128.288-.576 2.88-.32 1.536q1.952-.192 3.52-.512 1.6-.352 3.36-.96.896.416 1.376 1.184.512.736.512 1.632 0 1.28-.992 2.272-1.984.384-4.448.576-2.464.192-4.576.192-.576 0-1.504-.576t-1.664-1.344q-.704-.768-.704-1.312 0-.48.736-3.712.544-2.368 1.056-4.928l.352-1.76q.512-2.496.672-3.616l-1.344.096q-.608-.32-.992-.928-.352-.64-.352-1.376 0-1.28.992-2.272 4.384-.064 7.616-.192 3.264-.128 5.632-.48zm16.764 7.968q.256-1.6.256-2.56 0-.672-.128-1.056-.096-.384-.256-.384-.48 0-1.12.8-.608.8-1.056 1.92-.416 1.088-.416 1.952 0 1.088 1.056 2.208 1.088 1.088 3.168 2.688 1.568 1.152 2.336 1.92.768.736.8 1.344.032 1.344-1.408 2.656-1.44 1.28-3.616 2.112-2.144.832-4 .832-1.44 0-2.976-.704-1.536-.736-2.56-1.696-1.024-.992-1.056-1.728-.064-1.408.928-2.272.992-.896 2.656-.896.832 0 1.696.224.384 2.112.672 3.04 1.888-.48 4.096-1.664-7.136-5.408-7.136-8.448 0-1.472 1.088-3.52 1.088-2.08 2.88-3.552 1.792-1.504 3.776-1.504 1.472 0 2.848.992t2.24 2.432q.864 1.44.864 2.688 0 1.216-.992 1.952-.96.704-2.4.704-1.12 0-2.24-.48zm18.844-9.792q-.896-.992-1.76-2.24-.832-1.248-.992-1.472-.576-.896-.896-1.344.128-.8.672-1.248.544-.48 1.376-.48.48 0 .896.128.992 1.728 1.248 2.208.928 1.728 1.632 2.72 2.56-2.432 4.128-4.672 1.216-.32 2.24-.32 1.152 0 1.952.416.832.416 1.024 1.408-3.264 3.264-5.216 5.024-1.312.64-3.072.64-1.888 0-3.232-.768zm9.536 1.824q.608.352.896.992.32.608.32 1.344 0 .64-.256 1.28t-.672 1.056q-.48-.032-1.44-.032-.608 0-2.208.064l-1.696.032q.16-.928-.768 4.32l-.64 3.648q-.32 1.888-.672 4.96-.32 2.624-.576 3.68-.224 1.056-.736 1.056-.736 0-1.76-.512-.992-.544-1.76-1.28-.736-.736-.736-1.216-.032-.736.768-4.352.608-3.04.864-4.512 0 .064.512-2.656.448-2.432.544-2.976l-4.992.608q-.608-.32-.992-.928-.352-.64-.352-1.376 0-1.28.992-2.272 1.824-.256 4.544-.32 2.752-.096 3.264-.128 3.36-.096 4.896-.16 1.568-.096 2.656-.32zm19.036 14.432q.032.512.224 2.592.224 2.048.224 3.424 0 1.792-.416 1.92-.128.032-.416.032-.704 0-1.76-.32-1.024-.352-1.856-.864-.8-.512-.928-.992t-.128-4.032q-3.456.416-4.544.512-.864 2.528-1.984 5.536-.864.192-1.6.192-1.28 0-2.176-.608-.864-.64-1.152-1.92l.64-1.44q3.52-7.84 6.08-13.152 2.592-5.312 3.36-5.312.608 0 1.76.448 1.184.448 2.112 1.088.96.64 1.088 1.152.224.896.608 3.744.384 2.848.608 5.504zm-5.152-9.44q-1.408 3.328-2.784 7.136 1.472-.096 2.912-.288 0-4.416-.128-6.848zm27.74-4.992q.608 0 1.632.544 1.056.544 1.824 1.28.8.736.8 1.28 0 .288-.608 2.56-1.12 4.032-1.664 7.04-.32 1.888-.672 4.96-.32 2.624-.576 3.68-.224 1.056-.736 1.056-.928 0-2.176-.768-1.216-.8-2.112-1.952-.48-.64-1.344-2.496-.864-1.856-1.696-4.16-.8-2.336-1.216-4.352l-.224 4.032q-.32 1.888-.672 4.96-.32 2.624-.576 3.68-.224 1.056-.736 1.056-.736 0-1.76-.512-.992-.544-1.76-1.28-.736-.736-.736-1.216-.032-.512.288-2.144.352-1.664.448-2.144.128-.64.48-2.336.352-1.728.576-3.2l.256-1.504q.608-3.584 1.12-5.824.544-2.24 1.088-2.24t1.472.48q.96.448 1.728 1.12.8.672 1.024 1.28 1.504 4.032 3.68 10.88l.384-4.192.256-1.504q.608-3.584 1.12-5.824.544-2.24 1.088-2.24zm19.388 7.968q.256-1.6.256-2.56 0-.672-.128-1.056-.096-.384-.256-.384-.48 0-1.12.8-.608.8-1.056 1.92-.416 1.088-.416 1.952 0 1.088 1.056 2.208 1.088 1.088 3.168 2.688 1.568 1.152 2.336 1.92.768.736.8 1.344.032 1.344-1.408 2.656-1.44 1.28-3.616 2.112-2.144.832-4 .832-1.44 0-2.976-.704-1.536-.736-2.56-1.696-1.024-.992-1.056-1.728-.064-1.408.928-2.272.992-.896 2.656-.896.832 0 1.696.224.384 2.112.672 3.04 1.888-.48 4.096-1.664-7.136-5.408-7.136-8.448 0-1.472 1.088-3.52 1.088-2.08 2.88-3.552 1.792-1.504 3.776-1.504 1.472 0 2.848.992t2.24 2.432q.864 1.44.864 2.688 0 1.216-.992 1.952-.96.704-2.4.704-1.12 0-2.24-.48zm24.956-7.616q1.792-.064 2.816.736 1.056.768 1.056 2.144 0 .544-.128 1.024-4.224 4.864-9.472 7.744 1.792 1.728 4.064 3.2 2.304 1.472 4.416 2.304.096.512.096 1.024 0 1.504-.896 2.592-.864 1.056-2.496 1.28-2.336-1.376-4-3.168-1.664-1.824-3.392-4.544-.288 4.096-.576 5.92-.288 1.792-.928 1.792-.736 0-1.76-.512-.992-.544-1.76-1.28-.736-.736-.736-1.216-.032-.512.288-2.144.352-1.664.448-2.144.128-.64.48-2.336.352-1.728.576-3.2l.256-1.504q.608-3.584 1.12-5.824.544-2.24 1.088-2.24.608 0 1.632.544 1.056.544 1.824 1.28.8.736.8 1.28 0 .352-.576 2.208-.576 1.856-1.088 3.2 1.92-1.632 3.392-3.488 1.504-1.856 3.456-4.672zm19.548-8.832q1.088-.544 2.272-.544 1.344 0 2.272.704.928.704.96 1.888-2.048 2.848-4.736 5.44-.192.032-.544.032-.832 0-1.44-.384-.576-.416-.736-1.216.544-.704.96-1.44.448-.736.608-.992.256-1.664.384-3.488zm5.6 8.48q.608.352.896.992.32.608.32 1.344 0 .64-.256 1.28t-.672 1.056q-4.128.064-6.88.32-.544 1.952-1.024 4.352 3.2-.256 5.408-.768.64.384.96 1.024.352.608.352 1.344 0 .672-.288 1.28-.256.576-.736.928-.608.064-1.184.096l-1.12.064-4.128.288-.576 2.88-.32 1.536q1.952-.192 3.52-.512 1.6-.352 3.36-.96.896.416 1.376 1.184.512.736.512 1.632 0 1.28-.992 2.272-1.984.384-4.448.576-2.464.192-4.576.192-.576 0-1.504-.576t-1.664-1.344q-.704-.768-.704-1.312 0-.48.736-3.712.544-2.368 1.056-4.928l.352-1.76q.512-2.496.672-3.616l-1.344.096q-.608-.32-.992-.928-.352-.64-.352-1.376 0-1.28.992-2.272 4.384-.064 7.616-.192 3.264-.128 5.632-.48zm30.008 7.968q.256-1.6.256-2.56 0-.672-.128-1.056-.096-.384-.256-.384-.48 0-1.12.8-.608.8-1.056 1.92-.416 1.088-.416 1.952 0 1.088 1.056 2.208 1.088 1.088 3.168 2.688 1.568 1.152 2.336 1.92.768.736.8 1.344.032 1.344-1.408 2.656-1.44 1.28-3.616 2.112-2.144.832-4 .832-1.44 0-2.976-.704-1.536-.736-2.56-1.696-1.024-.992-1.056-1.728-.064-1.408.928-2.272.992-.896 2.656-.896.832 0 1.696.224.384 2.112.672 3.04 1.888-.48 4.096-1.664-7.136-5.408-7.136-8.448 0-1.472 1.088-3.52 1.088-2.08 2.88-3.552 1.792-1.504 3.776-1.504 1.472 0 2.848.992t2.24 2.432q.864 1.44.864 2.688 0 1.216-.992 1.952-.96.704-2.4.704-1.12 0-2.24-.48zm14.812-8.288q3.872.32 7.168 1.92 3.296 1.6 5.216 4.032 1.92 2.4 1.92 5.056 0 2.336-2.048 5.152-2.048 2.816-4.992 4.768-2.912 1.952-5.312 1.952-.8 0-2.048-.8-1.216-.8-2.144-1.824-.928-1.056-.928-1.664 0-.544.64-3.04.64-2.592 1.056-4.672.16-.8.704-2.816.064-.288.32-1.152.256-.896.384-1.632l-1.312-.064q-.512-1.024-.512-2.048 0-.96.48-1.76.48-.832 1.408-1.408zm1.952 18.688q3.2-1.664 5.312-4.064 2.144-2.4 2.144-4.512 0-1.248-1.504-2.4-1.472-1.152-3.392-1.536-.384 1.952-1.152 5.6-.96 4.544-1.408 6.912zm31.003 4.224q-2.272-1.312-4.032-3.264-1.76-1.952-2.848-4.448l-.128 1.344q-.32 3.104-.64 4.64-.288 1.536-.832 1.536-.736 0-1.76-.544-.992-.544-1.76-1.28-.736-.736-.736-1.216 0-.832 1.568-8.48.192-.896.608-3.04.448-2.176.608-3.136l-1.184.192q-.992-.928-.992-2.336 0-.992.544-2.048 2.592-.672 5.248-.672 2.816 0 5.216.736 2.432.736 3.936 2.272 1.504 1.504 1.504 3.776 0 2.656-2.08 4.576-2.08 1.888-6.112 2.528 1.6 1.504 3.2 2.432 1.632.896 4.096 1.728.128.512.128 1.12 0 1.472-.896 2.432t-2.656 1.152zm-6.272-11.968q2.528-.256 4.128-1.344 1.632-1.088 1.632-2.592 0-.96-.96-1.6-.928-.672-2.528-.672-.576 0-1.248.096-.512 2.944-.48 2.816-.288 1.568-.544 3.296zm33.852-9.76q.384 2.336.384 4.512 0 4.768-1.536 8.704-1.536 3.936-4 6.208-2.464 2.272-5.024 2.272-1.28 0-2.976-.928-1.664-.96-2.88-2.272-1.216-1.344-1.216-2.368 0-2.24.768-7.2t1.824-8.608q1.056-.512 2.208-.512 1.216 0 2.112.672.896.64 1.216 1.824-.928 2.144-1.824 6.048-.864 3.904-.864 6.368 0 2.4.928 2.4 1.376 0 2.688-1.76 1.312-1.792 2.144-4.608.832-2.848.832-5.76 0-2.176-.512-4.096 1.6-1.76 3.392-1.76 1.248 0 2.336.864zm12.124-2.688q-.896-.992-1.76-2.24-.832-1.248-.992-1.472-.576-.896-.896-1.344.128-.8.672-1.248.544-.48 1.376-.48.48 0 .896.128.992 1.728 1.248 2.208.928 1.728 1.632 2.72 2.56-2.432 4.128-4.672 1.216-.32 2.24-.32 1.152 0 1.952.416.832.416 1.024 1.408-3.264 3.264-5.216 5.024-1.312.64-3.072.64-1.888 0-3.232-.768zm8.128 2.4q.544.224 1.088 1.024t.896 1.76q.352.928.352 1.504 0 .224-.032.32-.48 1.312-4.128 5.44-3.616 4.128-7.104 7.456 3.872-.736 8.448-1.408.736.32 1.152 1.152.416.8.416 1.76 0 1.536-.928 2.496-5.76.288-8.8.288-3.552 0-3.968-.32-.704-.608-1.376-2.016-.672-1.44-.672-2.336 0-.192.064-.384.16-.512 1.792-2.208 1.632-1.728 4.8-4.896 4.032-4.032 5.248-5.376l-3.68.32-4.448.416q-.672-.352-1.056-1.12-.384-.768-.384-1.632 0-.704.288-1.376.32-.672.896-1.152 1.088-.032 3.936-.032 6.528 0 7.2.32zm23.836-.576q.608.352.896.992.32.608.32 1.344 0 .64-.256 1.28t-.672 1.056q-4.128.064-6.88.32-.544 1.952-1.024 4.352 3.2-.256 5.408-.768.64.384.96 1.024.352.608.352 1.344 0 .672-.288 1.28-.256.576-.736.928-.608.064-1.184.096l-1.12.064-4.128.288-.576 2.88-.32 1.536q1.952-.192 3.52-.512 1.6-.352 3.36-.96.896.416 1.376 1.184.512.736.512 1.632 0 1.28-.992 2.272-1.984.384-4.448.576-2.464.192-4.576.192-.576 0-1.504-.576t-1.664-1.344q-.704-.768-.704-1.312 0-.48.736-3.712.544-2.368 1.056-4.928l.352-1.76q.512-2.496.672-3.616l-1.344.096q-.608-.32-.992-.928-.352-.64-.352-1.376 0-1.28.992-2.272 4.384-.064 7.616-.192 3.264-.128 5.632-.48zm21.724 0q.608 0 1.632.544 1.056.544 1.824 1.28.8.736.8 1.28 0 .288-.608 2.56-1.12 4.032-1.664 7.04-.32 1.888-.672 4.96-.32 2.624-.576 3.68-.224 1.056-.736 1.056-.928 0-2.176-.768-1.216-.8-2.112-1.952-.48-.64-1.344-2.496-.864-1.856-1.696-4.16-.8-2.336-1.216-4.352l-.224 4.032q-.32 1.888-.672 4.96-.32 2.624-.576 3.68-.224 1.056-.736 1.056-.736 0-1.76-.512-.992-.544-1.76-1.28-.736-.736-.736-1.216-.032-.512.288-2.144.352-1.664.448-2.144.128-.64.48-2.336.352-1.728.576-3.2l.256-1.504q.608-3.584 1.12-5.824.544-2.24 1.088-2.24t1.472.48q.96.448 1.728 1.12.8.672 1.024 1.28 1.504 4.032 3.68 10.88l.384-4.192.256-1.504q.608-3.584 1.12-5.824.544-2.24 1.088-2.24zm15.42-8.48q1.088-.544 2.272-.544 1.344 0 2.272.704.928.704.96 1.888-2.048 2.848-4.736 5.44-.192.032-.544.032-.832 0-1.44-.384-.576-.416-.736-1.216.544-.704.96-1.44.448-.736.608-.992.256-1.664.384-3.488zm-1.504 30.88q-.736 0-1.76-.512-.992-.544-1.76-1.28-.736-.736-.736-1.216-.032-.512.288-2.144.352-1.664.448-2.144.128-.64.48-2.336.352-1.728.576-3.2l.256-1.504q.608-3.584 1.12-5.824.544-2.24 1.088-2.24.608 0 1.632.544 1.056.544 1.824 1.28.8.736.8 1.28 0 .288-.608 2.56-1.12 4.032-1.664 7.04-.32 1.888-.672 4.96-.32 2.624-.576 3.68-.224 1.056-.736 1.056z" aria-label="KŘESŤANSKÉ SDRUŽENÍ" style="font-size:32px;font-family:Mogra;-inkscape-font-specification:&quot;Mogra, Normal&quot;;letter-spacing:4.86px" transform="translate(-661.706 -229)"/>
</svg>

