<svg xmlns="http://www.w3.org/2000/svg" xml:space="preserve" viewBox="0 0 301 317.3" fill="white">
  <path d="M.3 274c-1-4 .5-72 2-88.6.6-7.6.5-20.2-.2-31.9-1.4-20.9-.8-81.7.8-85.4 2.7-6.2 6.3-1.8 6 7.3L8 137.9c-.3 29.5-1.1 60-1.8 67.5-2 22-2.9 38.1-2.1 38.1a246.4 246.4 0 0 1 32.5-38.1A193.7 193.7 0 0 0 55 185.6c-1.5-5 16.2-63.4 19.2-63.4 2.1 0 2.2.7.6 3.7-.6 1.2-2 10.3-3.2 20.3-1 10-2.4 21-3 24.4l-1 6.2 9.2-6c5-3.4 14-8.7 20-11.8 6.1-3 9.8-5.3 8.3-4.8-2.8.7-2.9.6-2.9-13.7 0-8 .5-14.5 1.1-14.5a81 81 0 0 1 8.3 25c-1 1.6-1 1.6 6.3-.6a260 260 0 0 1 32.7-6.9c2.8 0 2.8 0 .6-2.3a177.6 177.6 0 0 1-14.9-22.3c-1.6-4.3 3.9-.6 13.8 9.2 10.8 10.7 11.5 12 6.5 13.3a287.1 287.1 0 0 1 52.6.8c10.2 1.3 10.2 1.3 15-3 2.6-2.5 5.5-4.5 6.4-4.5.9 0 1.6-.5 1.6-1.2s-1.2-1.3-2.8-1.3c-1.5 0-3.9-.9-5.2-1.9-2.1-1.6-2.7-1.6-4.6.2-2.5 2.3-10.5-1-41.1-16.8l-23.4-12c-4.6-2.2-7.2-5.7-4.4-5.7 2 0 13.5 4.5 19.7 7.7a443 443 0 0 0 47 18.6c3.3.8 6.1 2.2 6.3 3 .3 1.3 1.3 1.3 4.8 0 4.4-1.6 4.4-1.6.3-3.2-6.1-2.5-5.3-5 1.3-4 5.3.7 5.3.7.6-4.2-6.3-6.6-6.2-8.4.6-7.3 14.7 2.3 14.7 2.3 8.8-.8-7.5-4-6.7-4.8 4.3-4.9 5.4 0 14.2-.8 19.7-1.7 5.5-1 10-1.6 10.1-1.5l3 9.5c3.9 13.2 5.4 14.6 10.8 10.4 5.3-4 6.1-3.3 4.2 3.2-2 6.2-.8 10.8 3.7 15.3 4.2 4.2 3.8 4.9-2.7 4.9-5 0-2.8 5.9 5.1 13 4 3.6 3.3 5-2.4 4-5-.8-5-.8-1.9 4.6 4 6.7 4 7.6.4 6.8-3.8-.8-16-4.2-19-5.3-1.4-.5-.7.3 1.5 1.7 2.3 1.5 4 3.5 4 4.6 0 2.5-.7 2.4-5.3-1.2-28.2-21.3-79-29.7-130.4-21.4-35.8 5.9-75.6 29.4-100.5 59.5-3 3.7-7.6 9-10 11.8-16 18-31.2 43.7-31.2 52.6 0 6-2 7.5-3.3 2.4zM284 154c-4-8.1-3.2-9.4 3-4.7 2.6 2 4.2 2.7 3.6 1.7l-4.1-6.7c-3.7-5.9-3-8.7 1.7-7.5 3.3.8 3.4.8 1.3-2.1-1.1-1.7-2-4.6-2-6.6 0-2.4-.6-3.3-1.6-2.8l-3.8 1.5c-2.4.8-2.8 2.4-1 3.6 3.4 2 1 3.4-5.2 2.8-6.5-.6-6.5-.6-2.8 2.3 2 1.7 4.1 3 4.7 3 .5 0 .9.9.9 2 0 1.5-1.3 1.7-8.4 1-8.5-.9-8.5-.9-3.2 4.9 6.7 7.2 6.7 7.1-1.5 7.1-7 0-9.3-1.9-4-3.2 3-.7 3-.8-1.8-6-6.8-7.3-6.5-8.8 1.6-7.9 6.5.8 6.5.8 2.5-3.3-5.7-6-1.1-7.7 9.6-3.6 1.2.4.3-1.3-2-4-7.2-8.1-7.1-13.2 0-10.1 5.6 2.3 6.6 2.3 5 .3a30 30 0 0 1-2.6-6.9c-1.7-6-1.5-5.9-14.6-3.5-8 1.4-8.4 1.6-4.7 2.5 10.4 2.3 2.7 5.8-10.7 4.8-8.3-.7-8.3-.7-2.7 3.2 3 2.2 6.8 4 8.3 4 13.5 0 5 5.6-12.7 8.2-6.8 1-4.5 2.6 4 2.9 5.8.1 5.1 1.6-2.4 5.4l-6.6 3.3h6.6c9.2.2 9 3.5-.2 4.1-6.1.4-6.8 1.8-1.5 2.8 8 1.5 19.4 5.8 26.4 9.8 12.8 7.6 25 6.2 20.9-2.3zm-53.2-10c-.4-.4-1.4-.5-2.3-.1-1 .4-.7.7.7.7 1.3.1 2-.2 1.6-.6zm50-20.3c1-.5-.6-1.4-4-2.2-5.3-1.2-5.5-1.2-3.5 1 2.1 2.4 5 2.8 7.5 1.2zm-254.9 145c-6.8-5.3-7.8-9-2.4-9 2.2 0 4.7 1.4 7 3.8 4.9 5 12.2 1.7 49.3-22.8 5.1-3.4 11-7 12.9-8 4-2 4-4-.9-11.7-15.8-25.2-15.2-25.3-15.6 1.2-.1 12.6-6.7 22-15.2 22-5 0-4-3.7 2-7.5 6.5-4.1 6.5-4 7.5-27.6 1-24 3.6-29.4 9-19 2.5 4.8 25.2 28.4 27.4 28.4 13 0 29.7-18.8 25-28a177 177 0 0 1-10.1-30.5c.9-.9 29.4 2 38.5 3.8 5.5 1.1 8.8 1.1 14.4 0 4-.9 8.8-1.6 10.7-1.6 2.4 0 5-1.6 8.5-5.3 5.3-5.4 8.7-5 5 .7-2.2 3.3-3 4.1.8 5 1.4.2 3.9 1.2 5 1.7 1.6.6 2.2.2 4.8-3 4.8-6.1 9.1-5 5 1.2-3.5 5.3 2 7.4 6.7 2.6 1.6-1.6 3.8-2.8 4.8-2.6 3.3.6 2 3.3-.5 6-4.1 4.5 4.5 5 8.6 3 3-1.4 6.2-1 6.6-.5 1 1.3-1.6 3-4.9 4.3-4.4 1.8-1.5 5.1 3.7 4.7 5.6-.5 5.6 2.6.1 3.9-2.6.6-4.7 1.6-4.7 2.2 0 .6-1.1 2.3-2.6 3.7-1.4 1.5-2.4 2.8-2.2 3a175 175 0 0 0 20.8 9.4c7.7 2.8 9.4 4.5 6 5.8-1 .4-10-.5-20-2a215.4 215.4 0 0 0-80.7 2.6c-19.4 4-44 16.8-48.8 25.5a75 75 0 0 1-17.2 10.4c-8.7 4.3-24.9 12.6-35.8 18.4-23 12.2-20.9 11.8-28.5 5.8zm204.3-70c-5-3.4-5.8-3.5-12.5-2.4-4 .6-15 .9-24.6.5-16-.5-20.5-1.2-27.2-4-1.5-.5-2.2-.2-2.2 1 0 1-1.3 2.4-2.8 3.2-2.2 1 2.6 1.4 20.3 1.5a448 448 0 0 1 53.1 3.6c.7 0-1.1-1.5-4-3.4zm-75-4.4c7.3-3 7.3-3 3.2-4-8.4-2.5-9.5-8.4-3.7-19.6.2-.5-5-1-11.5-1-12.2 0-13.7 2.7-7 12 .5.6 1.3 3 1.8 5.1 2 9.4 7.1 11.6 17.3 7.5zm58.4-2.8c19-4.8 20.7-9.8 5.6-17.2-12-6-28.8-9.2-27.3-5.3.5 1.2-1.7 2.6-7.2 4.7-18 6.9 5.6 15.1 28.2 9.9 5.7-1.4 8.6-.6 8 2.2-1 5.2-32.2 6.7-45 2-12.1-4.3-9.3-14.6 5.3-19.5 4.4-1.4-6.6-.1-13.4 1.7-11.2 2.8-15 11.7-7 16.3 9.6 5.6 39.3 8.5 52.8 5.2zm60.1 65.5c-4.4-22.5 1-85.4 7-79.5.4.5 0 12.8-.8 27.5a536 536 0 0 0-.8 43.2c.9 19.6-2.2 24.7-5.4 8.8zM9.4 180.5c-.8-13.9 8.6-34.5 22.4-48.8.7-.7 5.5-7.4 10.5-14.9C51 104.2 54 101 55.6 102.6c.8.7-2.1 6.8-8.6 18a439 439 0 0 0-10.9 21.3l-7.7 15.9c-3.6 6.4-16 32-16 33 0 7.7-2.4-.6-3-10.3zm69.9-59.3a60.7 60.7 0 0 1-21.8-18.8l-2.4-4A40 40 0 0 1 52 81.6c0-56.1 91.7-51.6 97.3 4.8 2.6 26.2-36.9 45.8-70 34.8zm40.2-5.2c35.7-12.5 25.7-53.7-13.1-53.7-7.1 0-9-.4-9-1.9 0-7.2 21.8-5.5 34 2.6 4 2.6 4.5 2.7 3.3.7-12.8-20.4-65-14.5-72.4 8.1-10.1 30.6 23 56.2 57.2 44.2zm162-14.8c.5-15.1 4.6-28.4 9.3-29.9 2.4-.8 2 8.5-.9 16.9-1.3 4-3 11.8-3.9 17.5-2.4 17-5.2 14.3-4.5-4.5zm-46.7-24c-5.1-.5-23.4-1.3-40.6-1.8-58-1.4-62.4-4.3-7.2-4.6 97-.7 91.3-1 85 5-3.2 3-16.5 3.5-37.2 1.4z"/>
  <path d="M561 574.2v-.1h.3q-.3-.3-.3-.7l-.3-.6v-.3q.1-.2.3-.2v-1.2l.4-1 .6-1 .7-1h.3q0 .2.2 0 .5-.3.6-.7.2-.4.2-.9l.6-1.5.8-1.4q.4-.6 1-1 .4-.6 1-.8l1-.7 1.4-.4q.7-.2 1.5-.2l1.4.2.2-.1.1-.2q1.5.2 2.6.6 1.2.4 2 1.2.6.9 1 1.9.6 1 .8 2 .3 1.2.3 2.3 0 1.2-.5 2.4-1 1.3-2.5 2-1.5.8-3.2 1.4-1.6.5-3.5.8l-3.4.7v1.7l-.2 1.8-.5 1.7-.8 1.6-1.3.1-1 .3-.5-.3-.6-.1q.1-.4-.2-.8l-.5-.7-.3-.7q0-.4.4-.7-.3-.2-.3-.7l.3.2.2-1.3.3-1.4V575q0-.6-.7-.8zm7.5-6.9-.2.6-.1.4-.2.4-.2.5q0 .2.2.3.2 0 .3.2l.8-.3.8-.1.8-.2q.4 0 .9-.3l.9-.3 1-.3.8-.3.8-.5q-.4-.4-1.2-.7-.8-.3-1.8-.4l-2 .2q-.8.2-1.6.8zm42.7 15.2q-1.3.2-2.4 0-1-.4-1.9-1-.8-.6-1.4-1.5-.6-.8-1-1.8-.2-2 .2-3.6t1.2-3q.8-1.4 1.8-2.6l2-2.3q.1.1.2 0 .2 0 .3-.2l.2-.3.3-.2.3-.5.4-.3.4-.3q.3-.2.4-.5.3 0 .5-.2l.4-.3.4-.3.5-.3v-.3q.7-.3 1-.7l.7-.9h1.1q.2-.6.5-.8l.6-.5 1 .3q.5 0 .9.4 0 .4.2.6l.4.3.4.3q.2.2.2.5h.4l.1.3.2.3.1.2.2.4-.3.8q-.1.3-.5.5 0 .2.2.3.2 0 .2.2v.4l1.4 2.9 1.5 2.9v.8l.3.8.4.7.2.8v1l-.3 1.1-.4 1q-.3.5-.7.7-.5.6-1.2 1-.7.3-1.3.8-.4.3-.9.4l-1 .2-.8.5-1.1.3-1.1.3h-1l-2 .6q-1 .1-2.4-.2zm.4-10.6-.7 1.2-.8 1-.7 1.3-.3 1.5q.6.5 1.4.6h1.7l1.7-.2 1.5-.2q0-.2.2-.2 1.3-.2 2.3-.7l2.2-1.2.4-.6.3-.8-.2-.4v-.5q-.8-1-1.4-2.3l-1.3-2.4q0 .2-.2.3-.2.1-.4 0 0 .2-.3.4h-.8l-.4-.3-2 1.6q-1 .8-1.9 1.8h-.3zm40.6 9.5h-.1v-.4h.2l-.5-.8q0-.4-.3-1v-.2l.2-.3v-.2h.3v-.9l.2-.3-.1-.4q.6-.8.7-1.7l.2-1.6.5-.7.3-1v-1.6h.3l.3-2.6q0-1.4.3-2.8.2-1.3.7-2.3.5-1 1.6-1.3l.5 1.3.8 1 .8 1.1.7 1.2-.1 1.5-.3 1.8-.3 1.8-.3 1.4q0 .2.2.2t0 .3l1.8-.3 1.9-.4 1.7-.5 1.6-.6.5-2.8q.3-1.4 0-2.8.2-.1.3-.4l.4-.2-.2-1.4q0-.8.3-1.4.2-.7.7-1.1.4-.5 1-.7l.7 1.2.6 1.3.6 1.3q.4.6.9 1l.1 2 .1 2.3q-.2 1.3-.6 2.5l-.5 2.7-.3.6-.3.8-.3.7-.5.5q.2.5 0 .8 0 .4.3.9 0 .9-.3 1.5-.2.6-.7 1l-1.1.7-1.3.5-.5-.4-.6-.3.1-.3q-.6-.5-1-1.2t-.4-1.5v-.4l.2-.8.1-.7.1-.5-1.7.4-1.7.7-1.5.8-1.2.6-.1.5-.4.9-.5.8q-.2.3-.5.3l.2.2v.3l-1 .4-.7.4-1 .1q-.4 0-1-.3 0-.3-.3-.4l-.3-.3-.4-.2-.1-.2zm52.8 1.1q-1.3.2-2.4 0-1-.4-1.9-1-.8-.6-1.4-1.5-.6-.8-1-1.8-.2-2 .2-3.6t1.2-3q.8-1.4 1.8-2.6l2-2.3h.3l.2-.2.2-.3.3-.2.3-.5.4-.3.5-.3.3-.5q.3 0 .5-.2l.4-.3.4-.3.5-.3v-.3q.7-.3 1-.7l.7-.9h1.1q.2-.6.5-.8l.7-.5.9.3q.5 0 .9.4 0 .4.2.6l.4.3.4.3.3.5h.3l.2.3v.3l.2.2.2.4-.3.8q-.1.3-.5.5 0 .2.2.3.2 0 .2.2v.4l1.4 2.9 1.5 2.9v.8l.3.8.4.7.2.8v1q0 .6-.3 1.1-.1.6-.4 1-.3.5-.7.7-.5.6-1.2 1-.7.3-1.3.8-.4.3-.9.4l-1 .2-.8.5-1.1.3-1.1.3h-1l-2 .6q-1 .1-2.4-.2zm.4-10.6-.7 1.2-.8 1-.7 1.3-.3 1.5q.6.5 1.4.6h1.7l1.7-.2 1.5-.2q0-.2.2-.2 1.3-.2 2.3-.7l2.2-1.2.4-.6.3-.8-.2-.4v-.5q-.8-1-1.4-2.3-.5-1.3-1.3-2.4 0 .2-.2.3-.2.1-.4 0 0 .2-.3.4h-.8l-.4-.3-2 1.6q-1 .8-1.9 1.8h-.3zm43 10.8q-.8-.2-1.3-.6l-.7-1.2-.3-1.4-.1-1.7.3-.6q.2-.3.2-.8l.6-1.8.3-1.8q.2-.3.4-.3.2-1.7 0-3.5-.2-1.7-.6-3.2l.1-.5v-.3q0-.2.2-.2h.5q0-.6-.2-1l-.4-1.3.3-1q.1-.5.4-.9l1.8.7 1.8.7 1.7.7 1.7.6 2.6 1.8q1.3.9 2.4 2 1.1 1 1.8 2.4.8 1.3.9 3.2l-.1.3v.9q-1.1 1.9-2.8 3.1-1.6 1.3-3.5 2.3-1.9 1-4 1.7l-4 1.7zm2.9-16.6-.4.1q.4 1.4.5 2.5l.2 2.4v2.4l-.5 2.7q.4 0 .7-.2l.6-.3.6-.2.8-.2.3-.3.3-.3 1.5-.6 1.4-.8q.6-.4 1-.9.6-.5.9-1.3l-.6-.7-.7-.6-.7-.7-.5-.7-.9-.3-.6-.4-.7-.3q-.4-.2-.9-.2-.7-.5-1.4-.6-.6-.2-.9-.5zm36.5 13.5.4-.3v-.6l1.5-3.4 1.6-3.4.5-1 .6-1.2v-.6l.7-1 .5-1 .5-1.2.8-1.1.2-.3h.6l.3-.1h.6q1-.4 1.7-1.2l1.5-2 .3-.5.5.3.5.2.7.2 1.2.3.9.5.1.3.1.6.1.5.2 1.2.1 1.3.3 1.2.3 1.2.3 1.6.5 1.5h.3l.8-.1h.4l.1.3.2.2.2.1q.4 0 .6.2l.4.3.2.2h.1l.6.3-.3.5-1 1.2q-.7.6-1.5 1v.4l.1.4.2 1.2v1.3l-.7 1.4q-.4.6-1 1-.4.5-1.1.9-.7.3-1.4.3l-.6-.2-.4-.3-.3-.2-.4-.2v-.4q.2-.2 0-.4 0-.2-.4-.5l-.2-.2-.2-.2-.5-.7 1-.2q.8-.3 1-.6.4-.4.3-1.3-.7-.2-1.2 0l-1 .1-1.2.4h-2.8l-.1-.4-.2-.2-.4-.5q-.2-.3 0-.7-.3-.3-.3-.7l-.2.5-.1.4-.1.4h-.4l-.1.2v.2l.1.3-.3.3-.1.1-.2.1-.2.6-.2.6-.3 1v.8l-.2.4q-.1.2-.4.3l-.4.2-.4.3v.4h-.5l-.6.1h-.7l-.6-.5-.5-.3-.2-.3-.1-.4-.1-.4q0-.4-.2-.5zm9.3-7.6-.8 1.3h.4l.4-.1 2-.2 1.8-.2-.5-2.2-.6-2.3-.1.3q-.8.8-1.4 1.7l-1.1 1.7z" aria-label="POHODA" font-family="Permanent Marker" font-size="30" letter-spacing="25.3" style="-inkscape-font-specification:&quot;Permanent Marker&quot;" transform="translate(-542.3 -265.6)"/>
  <path d="m624.7 266.8.2.4.3.2.2.4.1.4v.8c-.2 0-.3.1-.5.3a7.2 7.2 0 0 0-1.2 1 9.6 9.6 0 0 1-1.4 1.2l-.7.3h-.3a3 3 0 0 1-.8-.3 9.6 9.6 0 0 1-1.8-1.6 5.9 5.9 0 0 0-1.2-1 1 1 0 0 1-.1-.3v-.4l.1-.4.2-.4.3-.2.2-.4h.2l.2-.2.3.2.3.3.3.3.3.2a27 27 0 0 0 1.6 1.8 42.6 42.6 0 0 1 2.8-2.8l.2.2h.2zm-44.4 0 .2.4.3.3.2.4.1.4v.7c-.2 0-.3.2-.5.3a7.2 7.2 0 0 0-1.2 1.2 9.6 9.6 0 0 1-1.4 1l-.7.4h-.3a3 3 0 0 1-.8-.3 9.6 9.6 0 0 1-1.8-1.7 5.9 5.9 0 0 0-1.2-.9 1 1 0 0 1-.2-.3v-.4l.2-.4.2-.4.3-.3.2-.3h.2l.2-.3.3.3.3.3.3.3.3.1a27 27 0 0 0 1.6 1.8 42.6 42.6 0 0 1 2.8-2.8l.2.2c.1 0 .2.1.2 0zM814.5 288q-.3-.1-.5-.4l-.2-.6q-.2-.3-.2-.7l-.2-.6.1-.4.3-.3h.8l.8-.2h.7l.7-.1.6-1.2.5-1q0-.5.3-1l.3-.7.3-.8.2-.8.4-1.3.3-1.4-1.2.3q-.4 0-.6.2-.4 0-.6-.2l-.4-.3-.2-.5-.3-.5v-.5q0-.4-.2-.5.2 0 .3-.3v-.3l.7-.1h.7l.7-.2q.4 0 .6-.2h2.1l2-.2q.4.2.9.2h.9q.4 0 .8.3.4.2.5.7l.4.1q.2.1.2.3v.8l-.8.4-1 .2-1.2.1h-1.2q0 .7-.3 1.6l-.5 1.7-.5 1.5-.1.8-.4.8q0 .3-.2.5l-.2.6-.3.6h1.4q0 .2.2.3l.2.1q.2 0 .3.2.2 0 .2.2l.4.3v.5l-.1.4-.3.4-.3.1-.3.3h-2.1q-.2 0-.1.2v.1l-1.3-.2q-.7 0-1.3.2l-1.3.3-1.4.2zm12.2-19.6-.6.3-.9.7-.7.7-.9.7-1 .6q-.5.3-1 .3l-.2-.3q-.2 0-.3-.2v-.7l-.2-.6.2-.4.4-.3q.2-.1.3-.4l1-1 1-1 .4-.2.3-.3.4-.4.4-.3.2.2h.3q0 .3.2.5l.4.3q0 .3.2.5l.2.4v.4l-.1.5zM802.4 286q-.2.1-.3.4v.4l-.3.4q-.1.2-.5.2v.3h-.3l-.3.1q-.5-.1-.8-.5l-.5-.8-.4-.8-.3-.8q0-.1 0 0h.2l-.2-.5q0-.3-.2-.4l1.2-2.5 1.3-2.7 1.3-2.7 1.3-2.8 1 .5 1 .6.7.8q.4.5.4 1v.1h-.1v.5l.1.2h-.2v.5l-.1.3-.1.2v.4h-.1v.1h-.1q0 .1-.1 0v3.3l.1 1.1q.9-.4 1.4-1.2.5-.8.8-1.8l.5-2 .3-2.2.4-.6.2-.6.2-.7.2-.6q.4 0 .6.2l.5.4.4.4.6.2.5.8.3.8-.2.4v.5l-.3.4q0 .2-.3.3 0 .6-.2 1.1l-.2 1-.2 1v1.2l-.4 1.1-.3 1.1q-.4.3-.6.8l-.5.8q0 .1 0 0h-.3v.5l-.6.4-.6.5-.7.3-1-.2q-1-.7-1.7-1.6-.8-1-1.2-2.2-.2 0-.3.3l-.2.4-.2.4-.2.1-.2.4-.1.3-.2.3v.4zm-17 1.1-.3-.3q0-.3-.3-.4l-.1-.7-.1-.7-.1-.8v-.8l.1-.3.2-.3.1-.3v-.3q.2 0 .2-.2h.2l.3-.8.3-.8.4-.7.3-.8-.5-.6-.2-.8-.1-.7-.2-.8.6-.6.7-.3.9-.3 1-.2 1.7-.4 1.4-.3 1.5-.2 1.7-.3h.2q.1.2.3.2v-.2h.1q.1.1.1 0l.7.6.8.5v.8q-.3.5-.7.8-.4.3-.9.4l-1 .3-1 .2-1 .2q-.5.1-1 .5h-1.3q-.1.2-.3.2l-.4.1v.8h3.9l-.1.2.3.3.3.3.4.3q.2.1.4 0l.1.5v.4l-.8.6-.8.4-.8.4-1 .1h-2.1l-.6-.1-.7 1-.5 1.2 1.3.1h1l1-.2h1.2q.5-.3 1.1-.3l1.2-.3.4.2.2.4.3.2.3.1.1.2.1.3.1.2h.2q-.4.8-.8 1.2l-1 .6q-.6.3-1.3.4l-1.6.2h-.7l-1.3.2H788l-1.5-.1q-.7-.2-1.1-.7zm-16.6-1v-1l.1-1 .3-.8.4-.8.5-.3.4-.3.4-.3.4-.2h.2l1-1 1.1-.7 1-.5.9-.7.3-.1.1-.3h.1l.1-.2.4-.3q.3-.1.4-.4l.5-.5h-.7l-1 .1-1.1.1h-.7l-.8.1q-.4-.2-.7-.6l-.4-.8-.1-.9v-.9h.3l.3-.2h.5l1.9-.2q.8 0 1.5.2h4.6q.6 0 1 .5l.3.6.5.3v1.2l-.5 1-.9.6-1 .6q0 .3-.2.4l-.4.3q-.8 1-1.8 1.7l-2 1.4-1.5 1-1.4 1.1-.3.2.2.3q.3.2.7.2h.4l.4-.2h.3l.3-.1h.2l.5-.2.4-.1.3-.1.4-.2 1-.1.9-.3.5-.2.5-.2.2.2q.2 0 .3.2l.2.1.1.2.1.6.4-.4q.3.3.3.6v.7q-.8.7-2 1.2l-2.3.8-.5.1-.5.2v-.4l-.5.3-.2.2v.1l-1.1.2-.7.2-.8.1h-1.5l-.3-.5-.4.2-.5-.3-.4-.4-.2-.4v-.2l-.3-.1v-.2l-.2-.3-.2-.2zm13.5-19.6.2.4.3.2q0 .3.2.5l.1.4v.7q-.2 0-.5.3l-.7.6-.5.5-.7.6-.7.5-.7.4h-.3l-.8-.4-.7-.5-.6-.6-.5-.5-.8-.6-.4-.3-.1-.4v-.3l.2-.4.2-.5.2-.2.2-.4h.2l.2-.2q.2 0 .3.3l.3.3.3.3.3.1.8 1 .8.8.8-.9.8-.9.3-.1.3-.3.3-.3.3-.3.2.2h.2zm-27.8 11.6-.1-.3.1-.7.2-.6v-.5l.2-.5q.3 0 .5-.3l.2-.3h.5l.2.5.3.4q.2.3.5.4l.2.4.2.4.3.9.2.8q-.3.4-.4 1l-.2 1.2v1.1l.3 1v.3h.5l1.3-.4 1-.6 1-.7 1-1 .8-1.2.6-1.4.4-1.5.1-1.4q.4-.2.4-.6v-.5q.1-.4.6-.6l.7.5.6.5.1 1 .3.7.2.6.2.8-.3 1-.2 1.1v.3l-.7 1.2-.6 1.1-.2.3-.1.3-.2.2v.2l-.6-.2v.6h-.4l-.2.4-1 1.3-1 1-1.5.7-1.7.8-.7-.1H757l-.6-.1q0-.2-.2-.3h-.2q-.4-.2-.6-.6l-.4-.8-.3-.4q0-.3-.2-.5l.4-.1-.5-.6-.2-.1v-.5l-.2-3q0-1.3.4-2.4zm-15.5 8-.1-.1-.2-.4h.2v-.7l.1-.7.2-.7-.1-.7h.1l.1-.3v-.7l.4-1.2.3-1.3.2-1.2.4-1.1h.6l.4.3q.6-.5 1-1.1l1-1.3q.5-.7 1.1-1.2.6-.5 1.5-.6l1 .8q.6.3 1 .9l.3.2.3.2v.3l.5.6.3.7.3.8.3.7v.9q0 1-.6 1.6-.6.7-1.4 1l-1.8.8q-1 .2-1.8.6h.1q.1 0 0 .2l1 .5.6.4.6.2 1 .3.9.2.6.1.6.1.8.1.4.5.2.6v.6l-.2.4h.3l-.2.3-.2.3-.2.2-.3.2q-.7.2-1.8 0l-2.8-1q-.9-.2-1.4-.5l-1-.5-.6-.5-.8-.7-.1.2-.3 1.2-.6 1h-.5q0 .2-.2.3h-.3l-.2-.1-.2-.1h-.3v-.4q-.1-.2-.4-.2v-.5l-.1-.2v-.3zm6.6-9-.6.8-.6.6-.6.7-.3.9q.8-.1 1.7-.5 1-.3 1.7-.7 0-.7-.5-1.1-.4-.5-.8-.6zm-19 11q-.6-.2-.9-.5l-.4-.8-.2-1-.1-1q0-.3.2-.5l.1-.5.4-1.2.2-1.2q.1-.2.3-.2v-2.3q-.1-1.2-.4-2.2v-.3q.1-.1 0-.2 0-.2.2-.2h.3l-.1-.7-.3-.8q.2-.3.2-.7l.3-.6 1.2.5 1.2.5 1.1.5 1.1.3 1.8 1.2q.9.6 1.6 1.3.7.7 1.2 1.7.5.9.6 2.1v.2l-.1.2v.4q-.7 1.3-1.8 2.1-1 .8-2.4 1.5l-2.6 1.2-2.7 1.1zm2-11.2-.3.1.3 1.7.1 1.5v1.6l-.3 1.8h.4l.4-.3.5-.1.5-.1q0-.2.2-.3l.2-.2 1-.4.9-.5q.4-.2.7-.6.4-.3.6-.8l-.4-.5-.5-.4-.4-.5q-.3-.2-.4-.5l-.5-.1-.5-.3-.5-.2q-.2-.2-.5-.2l-1-.4q-.4 0-.6-.3zm-17.2 2v-.4q.1-.2 0-.4v-1l.6-.8.8-.6q.4-.3 1-.4l.8-.3v-.1q-.2 0-.1-.1l2-.6 2.3-.6q1-.3 2.3-.4 1.1 0 2.4.3l.2.5.3.4.3.4.1.4q.3.2.4.5v.6l-.4.3-.5.3q-.9-.2-1.7-.1h-1.6l-.5-.1h-.7l-.6.3h-.6l-.5.3h-.8v.2q.1 0 0 .2l.5.2.4.1q.3 0 .5.2.2.1.2.3.4 0 .6.2l.5.4.2.5v.5l.2.2h.2l.4.7q.3.3.4.7l.1 1-.2 1q-.3.8-1 1.5-.5.7-1.3 1.2l-1.7.9-1.7.6h-.2q-.1 0 0-.1l-.5.2H713l-.3-.3-.2-.4q0-.2-.2-.2v-.2h.1v-.1l-.1-.1v-1.5q0-.2.4-.4h1.5l1.3-.5 1.2-.6 1.2-.6.1-.3.3-.3.3-.3.1-.3v-.2h-.1v-.2h-.2l-1.1-.5-1-.4q-.2.2-.4.1l-.6-.2-1.6-.1-1.4-.4v-.2h-.3l-.3-.4-.3-.4zm-23.1 8.2-.3-.3q0-.3-.3-.4v-.7l-.2-.7-.1-.8v-.8l.1-.3.2-.3.2-.3v-.3l.1-.2h.2l.3-.8.3-.8.4-.7.3-.8-.5-.6-.2-.8v-.7l-.2-.8q.2-.4.5-.6l.7-.3 1-.3 1-.2 1.6-.4 1.4-.3 1.5-.2 1.8-.3h.2q0 .2.2.2v-.2h.2q0 .1 0 0 .1 0 0 0l.7.6.8.5v.8q-.3.5-.7.8l-.8.4-1 .3-1 .2-1 .2q-.6.1-1 .5-.2-.1-.4 0h-.9l-.4.2-.4.1v.5l.1.3h3.8v.2l.3.3.3.3.3.3q.2.1.4 0l.2.5v.4l-.9.6-.7.4-.9.4-1 .1h-2l-.7-.1-.6 1-.6 1.2 1.4.1h1l1-.2h1.1q.5-.3 1.1-.3l1.2-.3.4.2.2.4.3.2.4.1v.2l.1.3.1.2h.2q-.3.8-.8 1.2-.4.4-1 .6-.6.3-1.3.4l-1.6.2h-.7l-1.3.2H691l-1.4-.1q-.8-.2-1.2-.7zm10.4-17.9-.5.3-1 .7-.6.7-1 .7q-.4.4-1 .6-.4.3-.9.3l-.3-.3-.2-.2-.1-.3.1-.4q-.3-.4-.2-.6l.2-.4.4-.3q.2-.1.2-.4l1-1 1-1 .4-.2.4-.3.3-.4.4-.3.3.2h.3q0 .3.2.5l.3.3.3.5.1.4v.9zm-28.7 15v-.4h.2q.1-1.2.4-2.2l.7-1.9.7-1.8.6-2 .4-.6.4-.8.4-.7q.2-.3.6-.5h.3l.3.2h.3l.3.1.2.2.1.3.4-.1.4.5.3.7v.7q-.1.3-.5.5v.5l-.4.4-.3.6-.2.6v.5q.5-.6 1.3-1l1.3-1 .8-.6.7-.6.7-.4.8-.5h.5v-.1l-.1-.2.6-.3.5-.2.4.4q.2.3.6.3 0 .3.2.4l.4.2.3.3.1.5-.2.4-.2.4q-.4.5-1 .8l-.9.6-1 .6-1 .7-.3.3-.4.3-.4.3-.2.3h-.3q0 .2-.2.3-.2 0-.2.2.3.8.9 1.2.6.4 1.3.6l1.5.2h1.7v-.1l.2-.1.5.2.3.3.4.4.4.3q0 1-.6 1.5-.5.6-1.3 1l-2-.1q-.8-.1-1.6-.5h-.1l-.1-.2-.4-.1h-.3l-.6-.4-.7-.5-.8-.6-.7-.8h-.2l-.2-.1q-.6.4-1.1 1l-.9 1.3-.9 1.3q-.5.5-1.2.8h-.4l-.3-.2-.2-.2-.3-.1q0-.3-.2-.5 0-.3-.2-.5l-.1-.4v-.4l-.3-.3q.1-.1 0-.2v-.8l.1-.2zm-13.6-5.2v-.5l-.1-.4.1-.5v-.5q.2-.5.6-.8.3-.4.8-.6.4-.3.9-.4l.8-.3v-.1q-.1 0 0-.1l2-.6 2.2-.6q1.1-.3 2.3-.4 1.2 0 2.5.3l.2.5.3.4.2.4.2.4.3.5q.2.2.1.6l-.5.3-.4.3q-1-.2-1.8-.1h-1.6l-.5-.1h-.6l-.6.3h-.6l-.6.3h-.7v.4l.4.2.5.1.4.2.3.3.6.2.4.4.3.5v.5q0 .2.2.2h.2q0 .3.3.7l.5.7v1l-.1 1q-.3.8-1 1.5-.6.7-1.4 1.2l-1.7.9q-.8.4-1.7.6h-.2v-.1l-.4.2h-1.6l-.3-.3-.1-.4h-.1l-.1-.2v-.2q.1 0 0 0v-.2q-.1 0 0-.1v-1.4q0-.2.3-.4h1.5l1.4-.5 1.2-.6 1.1-.6q0-.2.2-.3l.3-.3.2-.3.2-.3v-.2h-.2v-.2h-.1l-1.2-.5-1-.4q-.2.2-.4.1l-.6-.2-1.5-.1-1.4-.4-.1-.2h-.3l-.3-.4-.2-.4zm-12.5 7q-.2.1-.2.4l-.1.4q0 .3-.2.4-.2.2-.5.2-.1 0 0 .1v.2h-.4l-.2.1q-.5-.1-.8-.5l-.5-.8-.4-.8-.4-.8q0-.1.1 0h.1l-.1-.5q0-.3-.2-.4l1.2-2.5 1.3-2.7 1.3-2.7 1.3-2.8 1 .5 1 .6.7.8.4 1v.1h-.2l.1.3v.2l.1.2h-.3v.8l-.2.2v.5h-.1q0 .1-.1 0v3.3l.1 1.1q.9-.4 1.4-1.2.5-.8.8-1.8l.5-2 .3-2.2.3-.6.3-.6.1-.7.3-.6.6.2.4.4.5.4.6.2.5.8.3.8-.2.4-.1.5-.2.4-.3.3q0 .6-.2 1.1l-.2 1-.2 1v1.2l-.4 1.1-.4 1.1-.5.8-.5.8q0 .1-.1 0h-.2v.5q-.4.1-.6.4l-.6.5-.7.3-1-.2q-1-.7-1.7-1.6-.8-1-1.3-2.2-.2 0-.3.3l-.1.4-.2.4-.2.1-.2.4-.2.3-.1.3v.4zm-20 0 .2-.3v-.4l1-2.3 1-2.2.4-.7.4-.8v-.4l.5-.7.3-.6.4-.8.5-.8.1-.2h1q.6-.3 1.1-.8l1-1.4.3-.3.3.2.3.1.4.1.8.3.7.3v.2l.1.4v.3q.2.4.2.9l.1.8.2.8.2.8q0 .6.2 1.1 0 .5.3 1h.2l.6-.1h.2v.2l.2.1.1.1q.3 0 .5.2l.2.2h.1l.1.1.4.2-.2.3q-.2.4-.7.8l-1 .7v.2l.1.3.2.8v.9l-.5.9-.6.7-.8.6-1 .2-.4-.2-.2-.1-.3-.2-.2-.1v-.6l-.2-.3h-.2v-.3l-.5-.4.7-.2q.5-.1.7-.4.2-.2.2-.8-.5-.1-.8 0h-.6l-1 .3h-1.8v-.3l-.2-.1-.2-.3v-.5q-.2-.2-.2-.5l-.1.4-.1.2-.1.3h-.3v.5l-.2.1v.1l-.1.1-.2.4-.1.4-.2.6v.6l-.2.3-.2.2-.3.1-.3.2v.3h-1.2l-.4-.3-.3-.2-.1-.2-.1-.2v-.3l-.2-.4zm6.2-5.1-.6.8h.6l1.2-.2 1.3-.2-.4-1.4-.3-1.5-.1.2-1 1-.7 1.2zm-18.5-4.1v-.3l-.2-.3-.2-.5v-.9l.2-.2v-.3h2.5l1.6-.2 2-.2v-.2l.2-.2.2-.1.6.1.3.2h1l1.1-.2 1.6-.2 1.5-.1h1.2l.3.3.2.2.2.2.6.6q.3.4.2 1v.3l-.3.1-.2.3h-.7l-.2.2h-2.1l-1.3.3h-1l-.7.2-.3.9-.4.7-.3.8-.3 1-.4.6-.2.7-.5.7q0 .4-.2.7v.3l-.2.2-.1.2-.2.5v.2q-.1 0 0 .1l-.2.4v.5l-.1.2v.2l.1.2.1.2h.2l.3.2.2.3q.1.7-.2 1-.4.5-1.2.5h-.3l-.1-.2-.3-.1-.2-.2h-.1l-.1-.1-.3-.1-.3-.2v-.2l-.2-.5-.1-.5-.1-.4q0-.2-.2-.3 0-1.4.3-2.3l.6-1.8.4-1 .3-1 .2-.2.2-.1v-.5l.3-.5.1-.3.1-.3h-1.2l-.3.2h-2.4l-.4-.2-.2-.1q0-.2-.2-.3h-.2zm-13.7 2.2v-2q.2-.5.6-.8l.8-.6q.4-.3.9-.4l.9-.3-.1-.1v-.1l2-.6 2.2-.6 2.3-.4q1.2 0 2.5.3l.2.5.3.4.3.4v.4l.5.5v.6l-.4.3-.5.3q-.9-.2-1.8-.1H607l-.5-.1h-.6l-.6.3h-.6l-.6.3h-.7v.4l.4.2.5.1.4.2.3.3.6.2.4.4.3.5v.5l.2.2h.2q0 .3.4.7.3.3.4.7v2q-.4.8-1 1.5-.7.7-1.5 1.2l-1.6.9-1.8.6h-.2v-.1l-.4.2h-1.5l-.3-.3-.2-.4h-.1l-.1-.2v-.2h.1v-.1l-.1-.1v-1.5q0-.2.3-.4h1.5l1.4-.5 1.2-.6 1.1-.6q0-.2.2-.3l.3-.3.2-.3q.2-.1.2-.3v-.2h-.1v-.2h-.2l-1.1-.5-1-.4q-.2.2-.5.1l-.5-.2-1.6-.1-1.4-.4v-.2q-.2-.1-.4 0l-.3-.4-.2-.4zm-13.7 8.1-.3-.3q0-.3-.3-.4v-.7q-.2-.3-.2-.7l-.1-.8v-.8l.1-.3.2-.3.1-.3v-.3q.2 0 .2-.2h.2l.3-.8.3-.8.4-.7.3-.8-.5-.6-.2-.8-.1-.7-.2-.8.6-.6.7-.3 1-.3 1-.2 1.6-.4 1.4-.3 1.5-.2 1.8-.3h.2q0 .2.2.2v-.2h.2q0 .1 0 0 .1 0 0 0l.7.6.8.5v.8q-.3.5-.7.8-.4.3-.9.4l-1 .3-1 .2-1 .2q-.5.1-1 .5h-1.3q-.1.2-.3.2l-.4.1v.5l.1.3h3.8v.2l.2.3.4.3.3.3q.2.1.4 0l.2.5-.1.4-.8.6-.7.4-.9.4-1 .1h-2l-.7-.1-.6 1-.6 1.2 1.3.1h1l1-.2h1.2q.5-.3 1.1-.3l1.2-.3.4.2.2.4.3.2.3.1.2.2v.3l.1.2h.2q-.3.8-.8 1.2l-1 .6q-.6.3-1.3.4l-1.6.2h-.7l-1.3.2h-1.5l-1.5-.1q-.7-.2-1.1-.7zm-15.5-1-.2-.1-.2-.4h.2v-.7l.1-.7.2-.7v-.7l.2-.3v-.7l.3-1.2.3-1.3.3-1.2q.1-.6.4-1.1h.5l.4.3 1.1-1.1 1-1.3q.4-.7 1-1.2t1.5-.6l1.1.8q.6.3 1 .9l.3.2.3.2v.3l.4.6.3.7.3.8.4.7v.9q0 1-.7 1.6-.5.7-1.4 1-.8.5-1.8.8-1 .2-1.7.6l.1.2.9.5.6.4.6.2 1 .3 1 .2.5.1.6.1.9.1.3.5.2.6v.6l-.1.4h.3l-.3.3-.2.3-.2.2-.3.2q-.7.2-1.8 0l-2.8-1-1.4-.5-.9-.5-.7-.5-.8-.7v.2l-.4 1.2-.6 1h-.4l-.3.3h-.3l-.1-.1-.2-.1h-.3l-.2-.4q0-.2-.3-.2.1-.1 0-.2v-.8zm6.5-9-.6.8-.6.6-.5.7q-.3.4-.3.9.8-.1 1.7-.5l1.7-.7q-.1-.7-.5-1.1-.4-.5-.9-.6zm-24.2 7.1v-.2q-.1-.1 0-.2h.2q0-1.2.4-2.2l.6-1.9.8-1.8.6-2 .4-.6.3-.8.4-.7q.2-.3.6-.5h.3l.3.2h.3l.4.1.1.2q0 .2.2.3l.3-.1.5.5.2.7v.7q0 .3-.4.5v.3h-.1v.2q-.2.1-.3.4l-.3.6-.2.6v.5q.5-.6 1.2-1l1.4-1 .7-.6.7-.6.8-.4.8-.5q.1-.1.2 0h.3l-.1-.1v-.2l.5-.3.6-.2.4.4q.2.3.5.3l.3.4.3.2.3.3.1.5-.1.4-.2.4-1 .8-1 .6-1 .6-1 .7-.3.3-.4.3-.3.3-.3.3h-.3q0 .2-.2.3l-.2.2q.4.8 1 1.2.5.4 1.2.6l1.5.2h1.7l.1-.1.1-.1.5.2.4.3.3.4.4.3q0 1-.5 1.5-.5.6-1.3 1l-2-.1q-.9-.1-1.7-.5h-.1v-.2l-.4-.1h-.4l-.5-.4-.8-.5-.8-.6-.6-.8h-.2l-.2-.1q-.7.4-1.2 1l-.8 1.3-1 1.3q-.4.5-1.1.8h-.4q-.2 0-.3-.2l-.3-.2-.3-.1-.1-.5-.2-.5-.2-.4.1-.4-.4-.3q.2-.1.1-.2v-.3l-.1-.2v-.3h.1v-.2z" font-family="Permanent Marker" font-size="20" style="-inkscape-font-specification:&quot;Permanent Marker&quot;" transform="translate(-542.3 -265.6)"/>
</svg>
