<svg xmlns="http://www.w3.org/2000/svg" fill="none" width="30" height="30" viewBox="0 0 30 30">
  <g fill="#fff" clip-path="url(#a)">
    <path d="M0 0h8.5a.5.5 0 0 1 .5.5v2a.5.5 0 0 1-.5.5H0V0Z"/>
    <path d="M3 0v8.5a.5.5 0 0 1-.5.5h-2a.5.5 0 0 1-.5-.5V0h3ZM0 27h8.5a.5.5 0 0 1 .5.5v2a.5.5 0 0 1-.5.5H0v-3Z"/>
    <path d="M0 30v-8.5a.5.5 0 0 1 .5-.5h2a.5.5 0 0 1 .5.5V30H0ZM21 .5a.5.5 0 0 1 .5-.5H30v3h-8.5a.5.5 0 0 1-.5-.5v-2Z"/>
    <path d="M27.5 9a.5.5 0 0 1-.5-.5V0h3v8.5a.5.5 0 0 1-.5.5h-2ZM21 27.5a.5.5 0 0 1 .5-.5H30v3h-8.5a.5.5 0 0 1-.5-.5v-2Z"/>
    <path d="M29.5 21a.5.5 0 0 1 .5.5V30h-3v-8.5a.5.5 0 0 1 .5-.5h2Z"/>
  </g>
  <defs>
    <clipPath id="a">
      <path fill="#fff" d="M0 0h30v30H0z"/>
    </clipPath>
  </defs>
</svg>
